<svg width="24" height="24" viewBox="0 0 24 24" fill="none" xmlns="http://www.w3.org/2000/svg">
<path fill-rule="evenodd" clip-rule="evenodd" d="M13.7143 9.14286H11.4286V5.71429H8V3.42857H11.4286V0H13.7143V3.42857H17.1429V5.71429H13.7143V9.14286ZM4.58286 21.7143C4.58286 20.4571 5.6 19.4286 6.85714 19.4286C8.11429 19.4286 9.14286 20.4571 9.14286 21.7143C9.14286 22.9714 8.11429 24 6.85714 24C5.6 24 4.58286 22.9714 4.58286 21.7143ZM18.2857 19.4286C17.0286 19.4286 16.0114 20.4571 16.0114 21.7143C16.0114 22.9714 17.0286 24 18.2857 24C19.5429 24 20.5714 22.9714 20.5714 21.7143C20.5714 20.4571 19.5429 19.4286 18.2857 19.4286ZM7.08571 15.5771L7.05143 15.7143C7.05143 15.8743 7.18857 16 7.33714 16H20.5714V18.2857H6.85714C5.6 18.2857 4.57143 17.2571 4.57143 16C4.57143 15.6 4.67429 15.2229 4.85714 14.9029L6.4 12.1029L2.28571 3.42857H0V1.14286H3.73714L4.81143 3.42857L5.89714 5.71429L8.45714 11.12L8.60571 11.4286H16.6286L19.7829 5.71429L21.04 3.42857H21.0514L23.04 4.52571L18.6286 12.5371C18.24 13.2457 17.4857 13.7143 16.6286 13.7143H8.11429L7.08571 15.5771Z" fill="#B2B2B2"/>
</svg>
