<svg width="60" height="31" viewBox="0 0 60 31" fill="none" xmlns="http://www.w3.org/2000/svg">
<path fill-rule="evenodd" clip-rule="evenodd" d="M2.2878 21.3659C0.762594 19.8355 0 17.9368 0 15.6699C0 13.3925 0.762594 11.4913 2.2878 9.96605C3.81301 8.44084 5.71427 7.67825 7.99164 7.67825C10.269 7.67825 12.1703 8.44084 13.6955 9.96605C15.2207 11.4913 15.9833 13.3925 15.9833 15.6699C15.9833 17.9473 15.2207 19.8485 13.6955 21.3737C12.1703 22.8989 10.269 23.6615 7.99164 23.6615C5.71427 23.6615 3.81301 22.8963 2.2878 21.3659ZM7.97597 19.8694C9.16689 19.8694 10.1332 19.4698 10.8749 18.6707C11.6166 17.8715 11.9875 16.8765 11.9875 15.6856C11.9875 14.4946 11.6166 13.497 10.8749 12.6926C10.1332 11.8882 9.16167 11.486 7.9603 11.486C6.77983 11.486 5.81876 11.8882 5.07704 12.6926C4.33533 13.497 3.96448 14.4946 3.96448 15.6856C3.96448 16.8765 4.33533 17.8715 5.07704 18.6707C5.81876 19.4698 6.78506 19.8694 7.97597 19.8694ZM23.2071 0V9.10421C23.9384 8.36249 25.0875 7.93941 26.6545 7.83494C29.0572 7.83494 30.9637 8.61843 32.374 10.1854C33.7843 11.7524 34.4894 13.5806 34.4894 15.6699C34.4894 17.7592 33.7843 19.5874 32.374 21.1543C30.9637 22.7213 29.0572 23.5048 26.6545 23.5048C25.5262 23.5048 24.3771 23.087 23.2071 22.2512V23.5048H18.8195V0.0156699L23.2071 0ZM26.4978 19.9008C29.2139 19.7963 30.6242 18.2816 30.7286 15.3565C30.4153 12.9538 29.005 11.6532 26.4978 11.4547C24.5129 11.7576 23.416 12.7866 23.2071 14.5417V17.0802C23.416 18.6472 24.5129 19.5874 26.4978 19.9008ZM37.4667 4.07417C37.4667 3.44737 37.6756 2.92244 38.0935 2.49935C38.5114 2.07626 39.0755 1.86472 39.7858 1.86472C40.538 1.86472 41.123 2.07626 41.5409 2.49935C41.9587 2.92244 42.1677 3.44737 42.1677 4.07417C42.1677 4.70097 41.9587 5.22329 41.5409 5.64116C41.123 6.05903 40.5485 6.26795 39.8172 6.26795C39.0859 6.26795 38.5114 6.05903 38.0935 5.64116C37.6756 5.22329 37.4667 4.70097 37.4667 4.07417ZM55.6124 18.083V7.83494H60V22.2512C60 24.445 59.321 26.2784 57.9629 27.7514C56.6049 29.2243 54.9856 30.0026 53.1052 30.0862L52.1651 30.1802C49.9713 30.1175 47.9864 29.2505 46.2105 27.579L48.2476 25.2285C49.5012 26.1687 50.6869 26.691 51.8046 26.7955C53.1627 26.7955 54.1368 26.456 54.7271 25.777C55.3173 25.0979 55.6124 24.1316 55.6124 22.878V22.0789C54.5051 23.0295 53.2254 23.5048 51.7733 23.5048C49.7884 23.5048 48.2737 22.9042 47.229 21.7028C46.1844 20.5014 45.6621 19.1173 45.6621 17.5503V7.83494H50.0496V16.4534C50.0496 17.498 50.3108 18.3076 50.8331 18.8822C51.3554 19.4568 52.1442 19.7597 53.1993 19.7911C54.1186 19.7284 54.923 19.1591 55.6124 18.083Z" fill="#2BB2AC"/>
</svg>
